<svg width="214" height="34" viewBox="0 0 214 34" fill="none" xmlns="http://www.w3.org/2000/svg">
<path d="M0.168 26V0.799998H11.508C13.116 0.799998 14.568 1.148 15.864 1.844C17.184 2.54 18.216 3.5 18.96 4.724C19.704 5.924 20.076 7.292 20.076 8.828C20.076 10.412 19.704 11.84 18.96 13.112C18.216 14.36 17.196 15.344 15.9 16.064C14.604 16.784 13.14 17.144 11.508 17.144H6V26H0.168ZM14.136 26L7.728 14.624L13.992 13.724L21.12 26H14.136ZM6 12.464H10.968C11.592 12.464 12.132 12.332 12.588 12.068C13.068 11.78 13.428 11.384 13.668 10.88C13.932 10.376 14.064 9.8 14.064 9.152C14.064 8.504 13.92 7.94 13.632 7.46C13.344 6.956 12.924 6.572 12.372 6.308C11.844 6.044 11.196 5.912 10.428 5.912H6V12.464ZM33.2382 26.36C31.1262 26.36 29.2902 25.94 27.7302 25.1C26.1702 24.236 24.9582 23.072 24.0942 21.608C23.2302 20.12 22.7982 18.428 22.7982 16.532C22.7982 15.068 23.0382 13.724 23.5182 12.5C23.9982 11.276 24.6702 10.22 25.5342 9.332C26.3982 8.42 27.4182 7.724 28.5942 7.244C29.7942 6.74 31.1022 6.488 32.5182 6.488C33.8622 6.488 35.0862 6.728 36.1902 7.208C37.3182 7.688 38.2902 8.36 39.1062 9.224C39.9222 10.088 40.5462 11.108 40.9782 12.284C41.4102 13.46 41.6022 14.744 41.5542 16.136L41.5182 17.684H26.2902L25.4622 14.444H36.8382L36.2262 15.128V14.408C36.1782 13.808 35.9862 13.28 35.6502 12.824C35.3382 12.344 34.9182 11.972 34.3902 11.708C33.8622 11.444 33.2622 11.312 32.5902 11.312C31.6542 11.312 30.8502 11.504 30.1782 11.888C29.5302 12.248 29.0382 12.788 28.7022 13.508C28.3662 14.204 28.1982 15.068 28.1982 16.1C28.1982 17.156 28.4142 18.08 28.8462 18.872C29.3022 19.64 29.9502 20.24 30.7902 20.672C31.6542 21.104 32.6742 21.32 33.8502 21.32C34.6662 21.32 35.3862 21.2 36.0102 20.96C36.6582 20.72 37.3542 20.312 38.0982 19.736L40.7982 23.552C40.0542 24.2 39.2622 24.728 38.4222 25.136C37.5822 25.544 36.7182 25.844 35.8302 26.036C34.9662 26.252 34.1022 26.36 33.2382 26.36ZM45.224 33.92V6.884H50.696L50.912 11.168L49.832 10.844C50 10.052 50.408 9.332 51.056 8.684C51.704 8.036 52.52 7.52 53.504 7.136C54.512 6.728 55.568 6.524 56.672 6.524C58.304 6.524 59.756 6.956 61.028 7.82C62.3 8.66 63.296 9.824 64.016 11.312C64.76 12.776 65.132 14.48 65.132 16.424C65.132 18.344 64.76 20.048 64.016 21.536C63.296 23.024 62.288 24.2 60.992 25.064C59.72 25.904 58.256 26.324 56.6 26.324C55.52 26.324 54.488 26.12 53.504 25.712C52.52 25.304 51.692 24.752 51.02 24.056C50.348 23.36 49.904 22.604 49.688 21.788L51.02 21.284V33.92H45.224ZM55.196 21.464C56.06 21.464 56.816 21.26 57.464 20.852C58.112 20.42 58.616 19.832 58.976 19.088C59.336 18.344 59.516 17.456 59.516 16.424C59.516 15.416 59.336 14.54 58.976 13.796C58.616 13.028 58.112 12.44 57.464 12.032C56.84 11.6 56.084 11.384 55.196 11.384C54.308 11.384 53.54 11.588 52.892 11.996C52.244 12.404 51.74 12.992 51.38 13.76C51.02 14.528 50.84 15.416 50.84 16.424C50.84 17.456 51.02 18.344 51.38 19.088C51.74 19.832 52.244 20.42 52.892 20.852C53.54 21.26 54.308 21.464 55.196 21.464ZM77.9544 26.36C75.9624 26.36 74.1864 25.928 72.6264 25.064C71.0904 24.2 69.8664 23.024 68.9544 21.536C68.0664 20.048 67.6224 18.344 67.6224 16.424C67.6224 14.504 68.0664 12.8 68.9544 11.312C69.8664 9.824 71.0904 8.648 72.6264 7.784C74.1864 6.92 75.9624 6.488 77.9544 6.488C79.9464 6.488 81.7104 6.92 83.2464 7.784C84.8064 8.648 86.0304 9.824 86.9184 11.312C87.8064 12.8 88.2504 14.504 88.2504 16.424C88.2504 18.344 87.8064 20.048 86.9184 21.536C86.0304 23.024 84.8064 24.2 83.2464 25.064C81.7104 25.928 79.9464 26.36 77.9544 26.36ZM77.9544 21.392C78.8184 21.392 79.5864 21.176 80.2584 20.744C80.9304 20.312 81.4584 19.724 81.8424 18.98C82.2264 18.236 82.4064 17.384 82.3824 16.424C82.4064 15.464 82.2264 14.612 81.8424 13.868C81.4584 13.1 80.9304 12.5 80.2584 12.068C79.5864 11.636 78.8184 11.42 77.9544 11.42C77.0904 11.42 76.3104 11.636 75.6144 12.068C74.9424 12.5 74.4144 13.1 74.0304 13.868C73.6464 14.612 73.4664 15.464 73.4904 16.424C73.4664 17.384 73.6464 18.236 74.0304 18.98C74.4144 19.724 74.9424 20.312 75.6144 20.744C76.3104 21.176 77.0904 21.392 77.9544 21.392Z" fill="black"/>
<path d="M92.6289 26V0.799998H103.501C105.085 0.799998 106.489 1.16 107.713 1.88C108.961 2.6 109.945 3.584 110.665 4.832C111.409 6.08 111.781 7.484 111.781 9.044C111.781 10.676 111.409 12.14 110.665 13.436C109.945 14.708 108.961 15.716 107.713 16.46C106.489 17.204 105.085 17.576 103.501 17.576H98.7489V26H92.6289ZM98.6409 12.212H102.637C103.165 12.212 103.645 12.08 104.077 11.816C104.509 11.552 104.857 11.192 105.121 10.736C105.385 10.28 105.517 9.752 105.517 9.152C105.517 8.528 105.385 8 105.121 7.568C104.857 7.136 104.509 6.8 104.077 6.56C103.645 6.32 103.165 6.2 102.637 6.2H98.6409V12.212ZM115.853 26V6.884H121.325L121.577 13.112L120.497 11.924C120.785 10.892 121.253 9.968 121.901 9.152C122.573 8.336 123.353 7.688 124.241 7.208C125.129 6.728 126.077 6.488 127.085 6.488C127.517 6.488 127.913 6.524 128.273 6.596C128.657 6.668 129.005 6.752 129.317 6.848L127.733 13.22C127.469 13.052 127.109 12.92 126.653 12.824C126.221 12.704 125.765 12.644 125.285 12.644C124.757 12.644 124.265 12.74 123.809 12.932C123.353 13.1 122.969 13.352 122.657 13.688C122.345 14.024 122.093 14.42 121.901 14.876C121.733 15.332 121.649 15.848 121.649 16.424V26H115.853ZM140.427 26.36C138.435 26.36 136.659 25.928 135.099 25.064C133.563 24.2 132.339 23.024 131.427 21.536C130.539 20.048 130.095 18.344 130.095 16.424C130.095 14.504 130.539 12.8 131.427 11.312C132.339 9.824 133.563 8.648 135.099 7.784C136.659 6.92 138.435 6.488 140.427 6.488C142.419 6.488 144.183 6.92 145.719 7.784C147.279 8.648 148.503 9.824 149.391 11.312C150.279 12.8 150.723 14.504 150.723 16.424C150.723 18.344 150.279 20.048 149.391 21.536C148.503 23.024 147.279 24.2 145.719 25.064C144.183 25.928 142.419 26.36 140.427 26.36ZM140.427 21.392C141.291 21.392 142.059 21.176 142.731 20.744C143.403 20.312 143.931 19.724 144.315 18.98C144.699 18.236 144.879 17.384 144.855 16.424C144.879 15.464 144.699 14.612 144.315 13.868C143.931 13.1 143.403 12.5 142.731 12.068C142.059 11.636 141.291 11.42 140.427 11.42C139.563 11.42 138.783 11.636 138.087 12.068C137.415 12.5 136.887 13.1 136.503 13.868C136.119 14.612 135.939 15.464 135.963 16.424C135.939 17.384 136.119 18.236 136.503 18.98C136.887 19.724 137.415 20.312 138.087 20.744C138.783 21.176 139.563 21.392 140.427 21.392ZM159.83 26L151.838 6.884H158.21L162.962 21.176L161.558 21.32L166.454 6.884H172.754L164.366 26H159.83ZM182.288 26.324C180.68 26.324 179.24 25.904 177.968 25.064C176.72 24.2 175.724 23.024 174.98 21.536C174.236 20.024 173.864 18.32 173.864 16.424C173.864 14.48 174.236 12.764 174.98 11.276C175.724 9.788 176.744 8.624 178.04 7.784C179.336 6.92 180.812 6.488 182.468 6.488C183.38 6.488 184.208 6.62 184.952 6.884C185.72 7.148 186.392 7.52 186.968 8C187.544 8.456 188.036 8.996 188.444 9.62C188.852 10.22 189.152 10.868 189.344 11.564L188.156 11.42V6.884H193.88V26H188.048V21.392L189.344 21.356C189.152 22.028 188.84 22.664 188.408 23.264C187.976 23.864 187.448 24.392 186.824 24.848C186.2 25.304 185.504 25.664 184.736 25.928C183.968 26.192 183.152 26.324 182.288 26.324ZM183.872 21.464C184.76 21.464 185.528 21.26 186.176 20.852C186.824 20.444 187.328 19.868 187.688 19.124C188.048 18.356 188.228 17.456 188.228 16.424C188.228 15.392 188.048 14.504 187.688 13.76C187.328 12.992 186.824 12.404 186.176 11.996C185.528 11.564 184.76 11.348 183.872 11.348C183.008 11.348 182.252 11.564 181.604 11.996C180.98 12.404 180.488 12.992 180.128 13.76C179.768 14.504 179.588 15.392 179.588 16.424C179.588 17.456 179.768 18.356 180.128 19.124C180.488 19.868 180.98 20.444 181.604 20.852C182.252 21.26 183.008 21.464 183.872 21.464ZM205.406 26.36C203.534 26.36 201.878 26.06 200.438 25.46C199.022 24.86 197.894 24.056 197.054 23.048L200.546 20.024C201.29 20.768 202.13 21.32 203.066 21.68C204.002 22.016 204.89 22.184 205.73 22.184C206.066 22.184 206.366 22.148 206.63 22.076C206.894 22.004 207.11 21.908 207.278 21.788C207.47 21.644 207.614 21.488 207.71 21.32C207.806 21.128 207.854 20.912 207.854 20.672C207.854 20.192 207.638 19.82 207.206 19.556C206.99 19.436 206.63 19.292 206.126 19.124C205.622 18.956 204.974 18.764 204.182 18.548C203.054 18.26 202.07 17.924 201.23 17.54C200.414 17.132 199.742 16.664 199.214 16.136C198.734 15.632 198.362 15.08 198.098 14.48C197.834 13.856 197.702 13.16 197.702 12.392C197.702 11.504 197.906 10.7 198.314 9.98C198.746 9.26 199.31 8.636 200.006 8.108C200.726 7.58 201.542 7.184 202.454 6.92C203.39 6.632 204.35 6.488 205.334 6.488C206.39 6.488 207.398 6.608 208.358 6.848C209.318 7.088 210.206 7.424 211.022 7.856C211.862 8.288 212.606 8.804 213.254 9.404L210.23 12.788C209.798 12.38 209.306 12.02 208.754 11.708C208.226 11.372 207.674 11.108 207.098 10.916C206.522 10.724 205.994 10.628 205.514 10.628C205.154 10.628 204.83 10.664 204.542 10.736C204.278 10.784 204.05 10.88 203.858 11.024C203.666 11.144 203.522 11.3 203.426 11.492C203.33 11.66 203.282 11.864 203.282 12.104C203.282 12.344 203.342 12.572 203.462 12.788C203.606 13.004 203.798 13.184 204.038 13.328C204.278 13.472 204.662 13.64 205.19 13.832C205.718 14 206.438 14.216 207.35 14.48C208.478 14.792 209.45 15.14 210.266 15.524C211.082 15.908 211.73 16.364 212.21 16.892C212.594 17.3 212.882 17.78 213.074 18.332C213.266 18.86 213.362 19.436 213.362 20.06C213.362 21.284 213.014 22.376 212.318 23.336C211.646 24.272 210.71 25.016 209.51 25.568C208.31 26.096 206.942 26.36 205.406 26.36Z" fill="#3F61D7"/>
</svg>
